# xmcd
#
# Track frame offsets: 
#        150
#        12657
#        24327
#        37810
#        51410
#        71097
#        84590
#        101445
#        113147
#        125647
#        139892
#        154815
#        166772
#        180740
#        195127
#        207535
#        228007
#        239337
#        251230
#        277852
#        292262
#        304462
#        319450
#
# Disc length: 4428 seconds
#
# Revision: 8
# Processed by: cddbd v1.5.2PL0 Copyright (c) Steve Scherf et al.
# Submitted via: ExactAudioCopy v0.99pb4
#
DISCID=4f114a17
DTITLE=Various Artist - The AUDIO Collection - Classic Blues
DYEAR=1993
DGENRE=Blues
TTITLE0=Muddy Waters - Hoochie Coochie Man
TTITLE1=Robert Johnson - If I Had Possesion Over Judgement Day
TTITLE2=Willie Dixon - Since My Baby Gone
TTITLE3=Koko Taylor - Wang Dang Doodle
TTITLE4=Son House - Death Letter
TTITLE5=Blind Willie Johnson - God Moves On Water
TTITLE6=B.B. King - How Blue Can You Get
TTITLE7=Sonny Boy Williams - Bring It On Home
TTITLE8=Big Bill Broonzy - I Can't Be Satisfied
TTITLE9=Bo Diddley - You Can't Judge A Book By It's Cover
TTITLE10=Willie Dixon - Pain In My Heart
TTITLE11=Bukka White - Parchman Farm Blues
TTITLE12=Lonnie Johnson - She's Making Whoopee In Hell Tonight
TTITLE13=Bessie Smith - St. Louis Blues
TTITLE14=Muddy Waters - Hard Day Blues
TTITLE15=Son House - Pearline
TTITLE16=Robert Johnson - Cross Road Blues
TTITLE17=Willie Dixon - Tell That Woman
TTITLE18=Howlin' Wolf - Little Red Rooster
TTITLE19=Willie "Long Time" Smith - Homeless Blues
TTITLE20=Muddy Waters - I Can't Be Satisfied
TTITLE21=Blind Willie Johnson - Dark Was The Night
TTITLE22=Big Mama Thornton - Hound Dog
EXTD=Sony Music Entertainment (Germany) GmbH\n2 983352/07-983352-10\nV
EXTD=ereinigte Motor-Verlage GmbH - Phono Music - AUDIO\nCD 27000480 A
EXTD=\nEAN/UPC: 4010427000480\n\nZusammenstellung: Claus Böhm, Redakti
EXTD=on AUDIO\nBooklet-Text: Claus Böhm (Biographien), Wolfgang Feld\n
EXTD=Artwork: Agentur B.E.R.G., Stuttgart\nTechnik: WinfriedLeyh (Stud
EXTD=io van Geest (NoNOISE-Mastering);\n               Wolfgang Feld (
EXTD=Studio Sonomaster, Mastering und Editing]\nProduktion: Sylvia Rei
EXTD=ser - Ulrike Speidel\nKonzeption und Redaktion: Wolfgang Feld - Re
EXTD=daktion AUDIO.
EXTT0=
EXTT1=
EXTT2=
EXTT3=
EXTT4=
EXTT5=
EXTT6=
EXTT7=
EXTT8=
EXTT9=
EXTT10=
EXTT11=
EXTT12=
EXTT13=
EXTT14=
EXTT15=
EXTT16=
EXTT17=
EXTT18=
EXTT19=
EXTT20=
EXTT21=
EXTT22=
PLAYORDER=
